<!-- Generator: Adobe Illustrator 21.0.0, SVG Export Plug-In  -->
<svg version="1.1"
	 xmlns="http://www.w3.org/2000/svg" xmlns:xlink="http://www.w3.org/1999/xlink" xmlns:a="http://ns.adobe.com/AdobeSVGViewerExtensions/3.0/"
	 x="0px" y="0px" width="698px" height="648.1px" viewBox="0 0 698 648.1" style="enable-background:new 0 0 698 648.1;"
	 xml:space="preserve">
<style type="text/css">
	.st0{opacity:0.1;}
	.st1{fill:#D6B199;}
	.st2{fill:#4A3B35;}
	.st3{fill:#7F655C;}
	.st4{fill:#FCD5BB;}
	.st5{fill:#8F5100;}
	.st6{fill:#E6A883;}
	.st7{fill:#78393B;}
	.st8{fill:#665149;}
	.st9{fill:#211919;}
	.st10{fill:#332526;}
	.st11{fill:#E6E6E6;}
	.st12{fill:#893737;}
	.st13{opacity:0.2;}
	.st14{fill:#FFFFFF;}
	.st15{fill:#F2C7AA;}
	.st16{fill:#EBC1A4;}
	.st17{fill:#EDC9B0;}
	.st18{fill:#473435;}
	.st19{fill:#BF9751;}
	.st20{fill:#4D5D63;}
	.st21{fill:#728A93;}
	.st22{fill:#61747C;}
	.st23{opacity:5.000000e-02;}
	.st24{fill:#2E2222;}
	.st25{fill:#046BA5;}
	.st26{fill:#91BFB6;}
	.st27{fill:#6694DD;}
	.st28{fill:#F2F2F2;}
	.st29{fill:none;stroke:#6694DD;stroke-width:13.5296;stroke-miterlimit:10;stroke-dasharray:8.5651,14.2752;}
	.st30{fill:none;stroke:#91BFB6;stroke-width:14.4044;stroke-miterlimit:10;stroke-dasharray:5.2341,11.216;}
	.st31{fill:#F9D53E;}
	.st32{fill:#F9D53E;stroke:#F9D53E;stroke-miterlimit:10;}
	.st33{fill:#CCCCCC;}
	.st34{fill:#999999;}
	.st35{fill:none;stroke:#F9D53E;stroke-width:0.8389;stroke-miterlimit:10;}
	.st36{font-family:'Bebas';}
	.st37{font-size:23.7557px;}
	.st38{fill:#7DAFA5;}
	.st39{fill:#6C998F;}
	.st40{fill:none;stroke:#567CBA;stroke-width:7.8823;stroke-miterlimit:10;}
	.st41{fill:#567CBA;}
</style>
<defs>
</defs>
<ellipse class="st0" cx="214.8" cy="629.5" rx="111.6" ry="18.6"/>
<ellipse class="st0" cx="450" cy="629.5" rx="111.6" ry="18.6"/>
<g>
	<g>
		<g>
			<path class="st1" d="M305.9,366.7c-2.2,4.7,9.5,14.7,13.7,16.7l21.1,7.3c4.2,2,9.5-2.3,11.8-7l0,0c2.2-4.7,0.7-10.2-3.5-12.2
				l-23-12.6c-4.2-2-19.7-1.5-22.8,5.7L305.9,366.7z"/>
			<path class="st2" d="M342.3,366.2c39.4,4.1,65.3-0.5,84.8-27.9c8.1-11.4,12.3-20.3,12.9-33.3c0,0,0,0,0,0c-0.1-1.5,0-3.1,0-4.7
				c0.3-8.4,7.4-17,15.8-16.7c7.9,0.3,14.1,8.6,14.6,16.3c0,0,0,0,0,0c0.4,20.8-3.3,36.3-15.6,55c-25.2,38.5-66.9,50.3-121.3,34.9
				C336.2,383.2,339.2,374,342.3,366.2z"/>
			<path class="st1" d="M295.8,374.5c1.2,1.7,3.6,2.1,5.4,0.9l11.5-8.1c1.7-1.2,2.1-3.6,0.9-5.4l0,0c-1.2-1.7-3.6-2.1-5.4-0.9
				l-11.5,8.1C295,370.3,294.6,372.7,295.8,374.5L295.8,374.5z"/>
			<path class="st1" d="M300.7,383.3c1.5,1.5,4,1.4,5.4-0.1l9.8-10.1c1.5-1.5,1.4-4-0.1-5.4l0,0c-1.5-1.5-4-1.4-5.4,0.1l-9.8,10.1
				C299.1,379.4,299.1,381.8,300.7,383.3L300.7,383.3z"/>
			<path class="st1" d="M308.7,387.3c1.5,1.2,3.6,0.9,4.8-0.5l7.7-9.7c1.2-1.5,0.9-3.6-0.5-4.8l0,0c-1.5-1.2-3.6-0.9-4.8,0.5
				l-7.7,9.7C307,384,307.2,386.2,308.7,387.3L308.7,387.3z"/>
			<path class="st1" d="M316.1,389.7c1.4,0.7,3.1,0.1,3.7-1.3l4.5-9.2c0.7-1.4,0.1-3.1-1.3-3.7l0,0c-1.4-0.7-3.1-0.1-3.7,1.3
				l-4.5,9.2C314.1,387.4,314.7,389,316.1,389.7L316.1,389.7z"/>
		</g>
		<path class="st2" d="M433.9,611.3l-2.7-162.8c-0.2-14.6,7-26.7,16.3-26.7c9.2,0,22.1,12.1,21.9,26.7l-8.1,162.8H433.9z"/>
		<path class="st0" d="M431.5,467.4l-0.3-18.8c-0.2-14.6,7-26.7,16.3-26.7c9.2,0,22.1,12.1,21.9,26.7l-0.9,18.8H431.5z"/>
		<path class="st3" d="M508.1,611.3h-32.2l-13.7-162.8c-0.3-14.6,19-26.7,29.9-26.7c10.9,0,19.5,12.1,19.2,26.7L508.1,611.3z"/>
		<path class="st0" d="M510.9,470.1H464l-1.8-21.6c-0.3-14.6,19-26.7,29.9-26.7c10.9,0,19.5,12.1,19.2,26.7L510.9,470.1z"/>
		<path class="st4" d="M458.1,275.9c0,7.8,6.3,14.1,14.1,14.1l0,0c7.8,0,14.1-6.3,14.1-14.1V245c0-7.8-6.3-14.1-14.1-14.1l0,0
			c-7.8,0-14.1,6.3-14.1,14.1V275.9z"/>
		<g>
			<circle class="st5" cx="467.7" cy="191.1" r="49.4"/>
			<path class="st4" d="M496.3,191.9h-67.8c0,0.1,0,0.2,0,0.3v34.4c0,21.5,17.5,39,39,39c21.5,0,39-17.5,39-39v-18.8
				C498,207,494.6,198.7,496.3,191.9z"/>
			<path class="st6" d="M454.9,200.3c0,0-9.4,26.4-8.1,31.4c1.1,4.3,11.3,3.7,11.8,2.1C461,225.9,457.5,199.2,454.9,200.3z"/>
			<circle class="st4" cx="507.9" cy="217.6" r="11.1"/>
			<g>
				<path class="st7" d="M461.1,246.9c0,0,0.5,0.4,1.3,0.9c0.8,0.5,2.1,1.2,3.5,1.7c1.5,0.5,3.2,0.9,5.1,0.9c0.9,0,1.9-0.1,2.9-0.2
					c1-0.1,1.9-0.4,2.9-0.7l0.4-0.1l0.1,0l0,0c0,0,0.1,0-0.1,0l0,0l0,0l0.2-0.1c0.3-0.1,0.6-0.2,0.7-0.3c0.3-0.1,0.8-0.4,1.1-0.6
					c0.7-0.5,1.4-1.1,2-1.7c1.1-1.4,1.9-3,2.4-4.6c0.5-1.5,0.9-2.9,1.1-3.9c0.2-1,0.3-1.6,0.3-1.6s0.2,0.5,0.5,1.5
					c0.2,1,0.5,2.5,0.4,4.3c0,0.9-0.2,1.9-0.4,2.9c-0.3,1-0.7,2.1-1.3,3.2c-0.6,1.1-1.5,2.1-2.6,2.9c-0.5,0.4-1.1,0.8-1.8,1.1
					c-0.4,0.2-0.6,0.3-0.9,0.4l-0.2,0.1l-0.2,0.1l-0.1,0l-0.4,0.1c-1.2,0.4-2.4,0.7-3.6,0.8c-1.2,0.1-2.5,0.1-3.7-0.1
					c-1.2-0.2-2.3-0.5-3.3-0.9c-1-0.4-1.9-0.9-2.6-1.5c-1.5-1.1-2.4-2.3-3-3.2C461.3,247.4,461.1,246.9,461.1,246.9z"/>
			</g>
			<path class="st7" d="M474.2,204.6c-3,0-5.5,2.4-5.5,5.5v2.4c0,1.6,0.7,3,1.8,4c1-0.9,2.3-1.4,3.7-1.4c1.4,0,2.7,0.5,3.7,1.4
				c1.1-1,1.8-2.4,1.8-4V210C479.7,207,477.2,204.6,474.2,204.6z"/>
			<path class="st7" d="M439.7,205.9c-2.3,0-4.2,1.9-4.2,4.2v1.9c0,1.2,0.5,2.3,1.4,3.1c0.7-0.7,1.7-1.1,2.8-1.1s2.1,0.4,2.8,1.1
				c0.8-0.8,1.4-1.9,1.4-3.1v-1.9C443.9,207.8,442,205.9,439.7,205.9z"/>
			<path class="st5" d="M506.4,219.5c0,3.3-2.7,6-6,6l0,0c-3.3,0-6-2.7-6-6v-26.7c0-3.3,2.7-6,6-6l0,0c3.3,0,6,2.7,6,6V219.5z"/>
		</g>
		<path class="st8" d="M428.5,460.8l6.8-134.5c5.2-39.2,5.7-49.9,27.6-49.9h20.8c38.5,0,38.3,21.1,36.8,45.7l-5.6,139.6l-60.6,0
			l-2.7-3.3L428.5,460.8z"/>
		<path class="st9" d="M433.9,611.3c0,0-6.3,1.9-14.2,2.8c-11.9,1.4-19.4,2.6-24,8.7c-4.3,5.7-1.2,8.7,1,10c6.7,3.8,63.1-3,63.1-3
			l1.4-18.4H433.9z"/>
		<path class="st10" d="M476.5,611.3c0,0-6.5,4.3-14.4,6.8c-9.6,3-17,3.7-20.7,9.8c-3.5,5.9-2.1,8.6,0,10c4.2,2.8,57-0.3,65.1-6.1
			c4.2-3,1.4-20.5,1.4-20.5H476.5z"/>
		<polygon class="st11" points="482.1,276.2 450.7,360.4 452.7,295.2 455.3,275.4 		"/>
		<path class="st12" d="M457.6,286.9c-0.4,3.1,1.8,5.8,4.9,6.2l0,0c3.1,0.4,5.8-1.8,6.2-4.9l0.3-3c0.4-3.1-1.8-5.8-4.9-6.2l0,0
			c-3.1-0.4-5.8,1.8-6.2,4.9L457.6,286.9z"/>
		<polygon class="st12" points="464.3,287.6 461.6,331.1 450.7,360.4 451.4,329.6 460.9,287.1 		"/>
		<polygon class="st13" points="485.1,283.7 477.9,323.8 467.5,327.8 468.5,341.7 450.3,364.3 478.4,286.1 		"/>
		<polygon class="st14" points="471.6,294.5 495.8,275.1 488.5,264.1 468.5,276.2 		"/>
		<polygon class="st13" points="451.4,361.2 452,319.6 453,292.7 453,280.9 450.9,278.9 444.2,320.7 448.1,326.3 444.2,336.8 		"/>
		<path class="st0" d="M521.9,461.8l4.4-110.4c-4-20.2-9.1-38.6-15-52.4c-1.7-4-10.5-15-20.7-12.2c-15.2,4.2-10.3,16.9-10.3,16.9
			c2.9,19.4,11.6,36.9,16.8,61.3c4.9,22.6,6.1,50,4.4,96.8L521.9,461.8z"/>
		<polygon class="st14" points="457.9,268.3 450.7,276.4 452.4,294.1 459.8,276.6 		"/>
		<g>
			<g>
				<g>
					<path class="st15" d="M518.7,490.4c-1.6-0.2-2.8-2.1-2.6-3.3l0.5-13.5c0.1-1.2,2.4-2.1,4-1.9l0,0c1.6,0.2,2.7,1.3,2.6,2.5
						c0,0,1.9,3.2-2.1,13.8C520.6,489.1,520.2,490.6,518.7,490.4L518.7,490.4z"/>
					<path class="st15" d="M515.7,496.4c-1.5-0.4-2.4-1.7-2-2.8l2.6-13.1c0.3-1.2,2.7-1.9,4.2-1.4l0,0c1.5,0.4,2.5,1.7,2.2,2.9
						c0,0,0,3.5-3.5,12.3C518.7,495.4,517.2,496.8,515.7,496.4L515.7,496.4z"/>
				</g>
				<g>
					<path class="st15" d="M525.2,494.3c-1.6-0.3-2.7-2.3-2.5-3.5l1.2-13.5c0.2-1.2,2.5-2,4.1-1.7l0,0c1.6,0.3,2.7,1.4,2.5,2.6
						c0,0,1.7,3.3-2.7,13.7C527.2,493.1,526.8,494.6,525.2,494.3L525.2,494.3z"/>
					<path class="st15" d="M521.9,500.2c-1.5-0.5-2.3-1.8-1.9-2.9l3.2-13c0.4-1.2,2.8-1.7,4.3-1.2l0,0c1.5,0.5,2.4,1.8,2,3
						c0,0-0.2,3.5-4.1,12.1C524.9,499.3,523.4,500.7,521.9,500.2L521.9,500.2z"/>
				</g>
				<g>
					<path class="st16" d="M539.6,485.8c-1.5,0.1-2.8-1.6-2.9-2.7l-1.3-18.8c0-1.1,1.9-2.3,3.4-2.3l0,0c1.5-0.1,2.7,0.8,2.7,1.9
						c0,0,2,9.1-0.1,19.3C541.2,484.3,541.1,485.7,539.6,485.8L539.6,485.8z"/>
					<path class="st16" d="M537.7,491.7c-1.5-0.2-2.4-1.2-2.3-2.3l1.2-14.5c0.1-1.1,2.2-2.1,3.7-1.9l0,0c1.4,0.2,2.2-1.9,2-0.8
						c0,0,0.1,8.5-1.8,17.1C540.3,490.3,539.2,491.9,537.7,491.7L537.7,491.7z"/>
				</g>
				<g>
					<path class="st15" d="M532.4,492.6c-1.4-0.2-2.5-2-2.3-3.1l0.7-16.2c0.2-1.1,2.2-1.9,3.6-1.7l0,0c1.4,0.2,2.4,1.3,2.3,2.4
						c0,0,1.7,6.9-2.1,16.4C534.2,491.4,533.8,492.8,532.4,492.6L532.4,492.6z"/>
					<path class="st15" d="M529.6,498c-1.4-0.4-2.1-1.6-1.8-2.6c0,0,2.3-7.7,2.7-11.8c0.1-1.1,2.5-1.6,3.9-1.2l0,0
						c1.4,0.4,2.2,1.6,1.9,2.7c0,0-0.1,3.2-3.5,11.1C532.3,497.1,530.9,498.4,529.6,498L529.6,498z"/>
				</g>
				<path class="st15" d="M514.6,461l17.3-10.2c4,1,6.2,1.1,8.2,5l-3,3.6c-1.1,5.4-1.5,8-0.4,14.7c1.7,9.8-18.6,4.9-21.5-1.1
					l-1.6-3.1C511.6,465.9,513.2,464.8,514.6,461z"/>
				<path class="st15" d="M510.7,480.9c-1.7-0.5-2.2-2.8-1.8-4.1l3.9-11c0.4-1.3,2.1-1.9,3.8-1.4l0,0c1.7,0.5,2.7,2,2.3,3.3l-3.9,11
					C514.5,480,512.3,481.4,510.7,480.9L510.7,480.9z"/>
				<path class="st0" d="M542.2,469c-0.2-1.6-0.9-8.4-1.2-10.4l-1-2.8c-2.1-3.9-4.3-4-8.2-5L514.6,461c-0.9,2.4-1.8,3.7-1.9,5.3
					L542.2,469z"/>
			</g>
			<path class="st3" d="M507.8,365c-5.2-24.3-13.9-41.8-16.8-61.3c0,0-4.8-12.7,10.3-16.9c10.2-2.8,19,8.2,20.7,12.2
				c17.8,41.2,27.6,119.4,21.8,165.9c-15.3-1.2-26.5,0.4-32.7-0.1C513.4,413,513,388.9,507.8,365z"/>
		</g>
	</g>
	<g>
		<g>
			<path class="st17" d="M286.6,438.4l-21,3.4c-2.5,3.5-4.3,5.1-3.3,9.6l0.8,3.6c1.8,8.6,10.2,14,18.8,12.3
				c8.6-1.8,14-10.2,12.3-18.8C294,448.5,291.6,439.4,286.6,438.4z"/>
			<g>
				<path class="st18" d="M285.7,450.5l-13.3,2.8c-7.2,1.5-11.8,8.5-10.3,15.7c1.5,7.2,8.5,11.8,15.7,10.3l13.3-2.8
					c7.2-1.5,11.8-8.5,10.3-15.7C300,453.6,292.9,449,285.7,450.5z M288.5,473.1l-9.4,2c-5.1,1.1-10.1-2.2-11.1-7.3
					c-1.1-5.1,2.2-10.1,7.3-11.1l9.4-2c5.1-1.1,10.1,2.2,11.1,7.3C296.8,467,293.5,472,288.5,473.1z"/>
				<path class="st18" d="M368.2,539.7c1.1,5.4-3.2,6.8-8.6,7.9l-115.8,24.3c-5.4,1.1-9.9,1.6-11-3.8l-15.9-76
					c-1.1-5.4,2.3-10.7,7.7-11.8l115.8-24.3c5.4-1.1,10.7,2.3,11.8,7.7L368.2,539.7z"/>
				<path class="st19" d="M294.8,490.2c0.8,4-1.7,8-5.8,8.8l0,0c-4,0.8-8-1.7-8.8-5.8l-1.6-7.6c-0.8-4,1.7-8,5.8-8.8l0,0
					c4-0.8,8,1.7,8.8,5.8L294.8,490.2z"/>
			</g>
			<path class="st20" d="M239.9,350.4c-1.2-2.5-2.1-5.1-2.5-7.8H213c2.2,43.5,20.2,82.2,51.2,115.5c11.3-9.7,21.1-14.8,25.6-18.6
				C258.6,399.9,250.6,371.6,239.9,350.4z"/>
			<path class="st4" d="M293.8,462.1c-1.4,0.8-3.3,0.3-4.1-1.1l-5.5-9.5c-0.8-1.4-0.3-3.3,1.1-4.1l0,0c1.4-0.8,3.3-0.3,4.1,1.1
				l5.5,9.5C295.7,459.5,295.2,461.3,293.8,462.1L293.8,462.1z"/>
			<path class="st4" d="M287.4,466.1c-1.6,0.5-3.3-0.3-3.8-1.8l-3.6-10.4c-0.6-1.6,0.3-3.3,1.8-3.8l0,0c1.6-0.5,3.3,0.3,3.8,1.8
				l3.6,10.4C289.8,463.9,288.9,465.6,287.4,466.1L287.4,466.1z"/>
			<path class="st4" d="M279.8,468.5c-1.6,0.3-3.2-0.9-3.5-2.5l-1.7-10.9c-0.3-1.6,0.9-3.2,2.5-3.5l0,0c1.6-0.3,3.2,0.9,3.5,2.5
				l1.7,10.9C282.5,466.7,281.4,468.3,279.8,468.5L279.8,468.5z"/>
			<path class="st4" d="M271.5,467.4c-1.8,0-3.2-1.1-3.2-2.5l0-9.2c0-1.4,1.4-2.5,3.2-2.5l0,0c1.8,0,3.2,1.1,3.2,2.5l0,9.2
				C274.7,466.3,273.2,467.4,271.5,467.4L271.5,467.4z"/>
			<path class="st0" d="M281.4,456.9c-1.4-0.9-2.8-2.8-1.7-5.1c0.8-1.6,1.5-2.6,4.1-6c2.5-3.3,6.3-2.8,7.7-1.8l0,0
				c1.4,0.9-0.4,2.5-1,4.1c-1.3,3.9-4.9,8-4.9,8C284.6,457.4,282.8,457.8,281.4,456.9L281.4,456.9z"/>
			<path class="st4" d="M281.9,455c-1.4-0.9-1.7-2.8-0.8-4.2c0,0,1.3-3.8,3.9-7.2c2.5-3.3,5.1-3.7,6.4-2.8l0,0
				c1.4,0.9,1.3,2.6,0.8,4.2c-1.3,3.9-6.2,9.1-6.2,9.1C285.1,455.6,283.2,456,281.9,455L281.9,455z"/>
		</g>
		<path class="st4" d="M320,373.2c2,4.7-9.7,13.9-13.9,15.7l-20.7,6.3c-4.1,1.8-9.1-2.6-11.1-7.2l0,0c-2-4.7-0.3-9.9,3.9-11.7
			l22.7-11.3c4.1-1.8,16.1-0.4,18.1,4.2L320,373.2z"/>
		<path class="st20" d="M244.7,607.8l2.6-157.9c0.2-14.1-6.8-25.9-15.8-25.9c-9,0-21.4,11.8-21.2,25.9l7.9,157.9H244.7z"/>
		<path class="st0" d="M247,468.1l0.3-18.3c0.2-14.1-6.8-25.9-15.8-25.9c-9,0-21.4,11.8-21.2,25.9l0.9,18.3H247z"/>
		<path class="st21" d="M172.7,607.8h31.3l13.3-157.9c0.3-14.1-18.5-25.9-29-25.9c-10.6,0-18.9,11.8-18.6,25.9L172.7,607.8z"/>
		<path class="st0" d="M170,470.8h45.5l1.8-20.9c0.3-14.1-18.5-25.9-29-25.9c-10.6,0-18.9,11.8-18.6,25.9L170,470.8z"/>
		<path class="st4" d="M249.9,234.6c0,20.9-16.9,37.8-37.8,37.8l0,0c-20.9,0-37.8-16.9-37.8-37.8v-33.3c0-20.9,16.9-37.8,37.8-37.8
			l0,0c20.9,0,37.8,16.9,37.8,37.8V234.6z"/>
		<path class="st4" d="M221.2,282.3c0,7.6-6.1,13.7-13.7,13.7l0,0c-7.6,0-13.7-6.1-13.7-13.7v-29.9c0-7.6,6.1-13.7,13.7-13.7l0,0
			c7.6,0,13.7,6.1,13.7,13.7V282.3z"/>
		<path class="st6" d="M219.5,205.9c0,0,9.2,25.6,7.9,30.5c-1.1,4.1-11,3.6-11.5,2C213.7,230.8,217,204.8,219.5,205.9z"/>
		<path class="st14" d="M240.3,241.4c-24,16.7-41.7,0-41.7,0s0.4,19.5,23.1,19.5C236.8,260.9,240.3,241.4,240.3,241.4z"/>
		<path class="st7" d="M201.6,211.1c3.8-0.3,7.3,2.1,8.4,5.6c0.1-0.6,0.1-1.1,0-1.7c-0.4-4.4-4.3-7.7-8.7-7.3
			c-4.4,0.4-7.7,4.3-7.3,8.7c0.1,0.6,0.2,1.2,0.3,1.7C194.7,214.4,197.7,211.4,201.6,211.1z"/>
		<path class="st7" d="M234.9,211.2c3.5,0,6.3,2.4,7.1,5.7c0.1-0.5,0.2-1,0.2-1.6c0-4-3.2-7.2-7.2-7.2s-7.2,3.2-7.2,7.2
			c0,0.5,0.1,1.1,0.2,1.6C228.5,213.7,231.4,211.2,234.9,211.2z"/>
		<circle class="st4" cx="172.9" cy="225.8" r="10.8"/>
		<path class="st18" d="M271.2,158.3c5.8,17.8-0.7,37.3-21.3,35.7c-19.9-1.6-25.5-18.4-52.3-5.5C175.3,199.3,182,232,182,232h-4.5
			l-6.7-17c0,0-14.9-46.8,30.5-60.6C234.9,144.3,254,177,271.2,158.3z"/>
		<path class="st22" d="M249.9,461.7l-6.6-130.4c-5-38-5.5-48.4-26.7-48.4h-20.2c-37.3,0-37.2,20.5-35.7,44.4l5.4,135.4l58.8,0
			l2.6-3.2L249.9,461.7z"/>
		<path class="st23" d="M247.5,413.9l-2.3-44.7c-15.5-4.2-29.6-13.9-39.1-28.4c-7.4-11.3-11-24-11.2-36.6c0,0,0,0,0,0
			c0.1-1.5,0.2-3,0.2-4.6c0-6.6-4.4-13.6-10.4-15.9c-7.5,1.2-12.7,3.6-16.4,6.9c-1.1,1.9-2,4-2.4,6c-1,0.3-2,0.8-2.9,1.3
			c-3.5,7.9-3.1,18.2-2.4,29.3l1,24.7c2.4,6.2,5.4,12.3,9,18.2C187.3,397.8,216.2,415.3,247.5,413.9z"/>
		<path class="st21" d="M284.8,371.5c-29.3,11.2-63.4,1-81.3-26.3c-7.4-11.3-11-24-11.2-36.6c0,0,0,0,0,0c0.1-1.5,0.2-3,0.2-4.6
			c0-8.1-6.6-16.7-14.7-16.7c-7.6,0-14,7.8-14.7,15.2c0,0,0,0,0,0c-1.1,20.1,4.6,40.3,15.8,58.8c23.1,38.3,69.5,57.2,113.6,33.2
			C287.1,386.8,287.5,379.1,284.8,371.5z"/>
		<path class="st24" d="M244.7,607.8c0,0,8.2,1,15.3,2.3c11.2,2.2,23.7,1.8,27.5,9.7c2.5,5.1,0.7,8.6-1.4,9.7
			c-7.5,3.6-66.6-3.9-66.6-3.9l-1.3-17.9H244.7z"/>
		<path class="st18" d="M203.3,607.8c0,0,10.6,3.2,16.5,4.6c12.3,2.7,25.8,4.7,28.8,12.8c2.1,5.7-1.7,8-3.9,9.1
			c-6,2.8-62.7-1.8-70.5-6.6c-4.2-2.6-1.3-19.9-1.3-19.9H203.3z"/>
		<polygon class="st11" points="197.9,282.7 228.4,364.4 226.4,301.1 223.9,281.9 		"/>
		<path class="st25" d="M221.7,293.1c0.3,3-1.8,5.7-4.7,6l0,0c-3,0.3-5.7-1.8-6-4.7l-0.3-2.9c-0.3-3,1.8-5.7,4.7-6l0,0
			c3-0.3,5.7,1.8,6,4.7L221.7,293.1z"/>
		<polygon class="st25" points="215.2,293.7 217.8,336 228.4,364.4 227.7,334.5 218.5,293.3 		"/>
		<polygon class="st13" points="195,290 202,328.8 212.1,332.8 211.1,346.2 228.8,368.2 201.5,292.3 		"/>
		<polygon class="st14" points="208.1,300.4 184.7,281.6 191.7,270.9 211.1,282.7 		"/>
		<polygon class="st13" points="227.7,365.1 227.2,324.8 226.1,298.7 226.1,287.3 228.2,285.3 234.7,325.8 230.9,331.3 234.7,341.4 
					"/>
		<polygon class="st14" points="221.3,275 228.4,282.9 226.7,300.1 219.5,283.1 		"/>
		<path class="st4" d="M329.6,381.1c-1.3,1.6-3.6,1.9-5.2,0.7l-10.8-8.3c-1.6-1.2-1.9-3.6-0.7-5.2l0,0c1.3-1.6,3.6-1.9,5.2-0.7
			l10.8,8.3C330.5,377.1,330.8,379.5,329.6,381.1L329.6,381.1z"/>
		<path class="st4" d="M324.5,389.5c-1.5,1.4-3.9,1.2-5.3-0.3l-9.1-10.2c-1.4-1.5-1.2-3.9,0.3-5.3l0,0c1.5-1.4,3.9-1.2,5.3,0.3
			l9.1,10.2C326.2,385.8,326.1,388.1,324.5,389.5L324.5,389.5z"/>
		<path class="st4" d="M316.6,393.1c-1.5,1.1-3.5,0.8-4.6-0.7l-7.1-9.7c-1.1-1.5-0.8-3.5,0.7-4.6l0,0c1.5-1.1,3.5-0.8,4.6,0.7
			l7.1,9.7C318.4,390,318.1,392,316.6,393.1L316.6,393.1z"/>
		<path class="st4" d="M309.4,395.2c-1.4,0.6-3,0-3.6-1.4l-4-9.1c-0.6-1.4,0-3,1.4-3.6l0,0c1.4-0.6,3,0,3.6,1.4l4,9.1
			C311.4,393,310.7,394.6,309.4,395.2L309.4,395.2z"/>
	</g>
	<path class="st1" d="M295.8,393c-0.4,1.3-1.8,2.1-3.2,1.7l0,0c-1.3-0.4-2.1-1.8-1.7-3.2l0.9-2.9c0.4-1.3,1.8-2.1,3.2-1.7l0,0
		c1.3,0.4,2.1,1.8,1.7,3.2L295.8,393z"/>
	<path class="st1" d="M302.4,393.7c-0.5,1.5-2.1,2.3-3.6,1.9l0,0c-1.5-0.5-2.3-2.1-1.9-3.6l1-3.3c0.5-1.5,2.1-2.3,3.6-1.9l0,0
		c1.5,0.5,2.3,2.1,1.9,3.6L302.4,393.7z"/>
	<path class="st1" d="M307.8,392.9c-0.5,1.5-2.1,2.3-3.6,1.9l0,0c-1.5-0.5-2.3-2.1-1.9-3.6l1-3.3c0.5-1.5,2.1-2.3,3.6-1.9l0,0
		c1.5,0.5,2.3,2.1,1.9,3.6L307.8,392.9z"/>
	<path class="st1" d="M305.3,372.1c-1.3,1.4-3.5,1.4-4.9,0.1l0,0c-1.4-1.3-1.4-3.5-0.1-4.9l2.9-3c1.3-1.4,3.5-1.4,4.9-0.1l0,0
		c1.4,1.3,10.8-4.6,0.1,4.9L305.3,372.1z"/>
</g>
<path class="st26" d="M139.9,238.5l-19.7-28c9.9-5.2,16.7-15.6,16.7-27.5c0-17.1-13.9-31-31-31h-39c-17.1,0-31,13.9-31,31
	c0,17.1,13.9,31,31,31h21l-1.5,0.3L139.9,238.5z"/>
<path class="st27" d="M619.5,148.8h-39c-17.1,0-31,13.9-31,31c0,13.7,8.8,25.2,21.1,29.4l-21.1,24.1l50.5-22.1l-1.3-0.3h20.7
	c17.1,0,31-13.9,31-31C650.5,162.7,636.6,148.8,619.5,148.8z"/>
<g>
	
		<ellipse transform="matrix(1 -1.936222e-03 1.936222e-03 1 -0.7698 7.016592e-02)" class="st27" cx="35.9" cy="397.6" rx="32.3" ry="32.3"/>
	
		<ellipse transform="matrix(1 -1.949524e-03 1.949524e-03 1 -0.7751 7.065332e-02)" class="st28" cx="35.9" cy="397.6" rx="19.5" ry="19.5"/>
	<g>
		
			<ellipse transform="matrix(1 -1.947478e-03 1.947478e-03 1 -0.7743 7.057809e-02)" class="st29" cx="35.9" cy="397.6" rx="29.1" ry="29.1"/>
	</g>
</g>
<g>
	
		<ellipse transform="matrix(1 -1.931341e-03 1.931341e-03 1 -1.074 1.1078)" class="st26" cx="573" cy="556.6" rx="23.2" ry="23.2"/>
	<g>
		<ellipse transform="matrix(1 -1.956976e-03 1.956976e-03 1 -1.0882 1.1225)" class="st30" cx="573" cy="556.6" rx="21" ry="21"/>
	</g>
	
		<ellipse transform="matrix(1 -1.929811e-03 1.929811e-03 1 -1.0732 1.1069)" class="st28" cx="573" cy="556.6" rx="19.2" ry="19.2"/>
</g>
<g>
	<g>
		<circle class="st31" cx="526.3" cy="68.1" r="25.5"/>
		<path class="st31" d="M538.4,100.4c0,6.7-5.4,6.1-12.1,6.1l0,0c-6.7,0-12.1,0.6-12.1-6.1V76.1c0-6.7,5.4-12.1,12.1-12.1l0,0
			c6.7,0,12.1,5.4,12.1,12.1V100.4z"/>
		<rect x="514.2" y="100.5" class="st21" width="24.1" height="12.7"/>
		<circle class="st21" cx="526.3" cy="112.1" r="7.7"/>
	</g>
	<g>
		<path class="st32" d="M488.9,68.3c0-0.4,0-0.9,0-1.3l-18-0.6c0,0.6,0,1.3,0,2v0.1L488.9,68.3L488.9,68.3z"/>
		<path class="st32" d="M566.8,30.5c-0.5-0.5-0.9-1-1.4-1.5l-12.7,12.7c0.3,0.3,0.7,0.7,1,1L566.8,30.5z"/>
		<path class="st32" d="M527.6,30.9l0.6-18c-0.6,0-1.3,0-1.9,0h-0.1v18h0.1C526.7,30.9,527.2,30.9,527.6,30.9z"/>
		<path class="st32" d="M485.8,106c0.5,0.5,0.9,1,1.4,1.5l12.7-12.7c-0.3-0.3-0.7-0.7-1-1L485.8,106z"/>
		<path class="st32" d="M581.7,68.1h-18v0.2c0,0.5,0,0.9,0,1.4l18,0.7c0-0.7,0-1.4,0-2.1V68.1z"/>
		<path class="st32" d="M487.1,29.3l12.7,12.7c0.3-0.3,0.7-0.6,1-1l-12.2-13.1C488,28.3,487.5,28.8,487.1,29.3z"/>
		<path class="st32" d="M551.8,95.7l12.2,13.2c0.5-0.5,1-1,1.5-1.4l-12.7-12.7C552.4,95.1,552.1,95.4,551.8,95.7z"/>
	</g>
</g>
<g>
	<path class="st33" d="M613.1,369.4c-0.5,1.8-2.4,2.9-4.2,2.4l-46-12.5c-1.8-0.5-2.9-2.4-2.4-4.1l14.6-51.9l25-13.9l29.8,8.1
		c1.8,0.5,2.9,2.4,2.4,4.2L613.1,369.4z"/>
	<path class="st34" d="M575,303.2l16.2,4.4c1.8,0.5,3.7-0.6,4.2-2.4l4.5-15.9L575,303.2z"/>
	<polygon class="st34" points="598.9,302.7 623.3,309.3 624,306.6 599.7,300 	"/>
	<polygon class="st34" points="565.7,352.8 590.1,359.3 590.8,356.7 566.5,350.1 	"/>
	<polygon class="st34" points="577.5,311 619.6,322.4 620.3,319.7 578.3,308.4 	"/>
	<polygon class="st34" points="574.3,322.4 616.4,333.8 617.1,331.1 575.1,319.7 	"/>
	<polygon class="st34" points="571.4,332.5 613.5,343.9 614.3,341.2 572.2,329.8 	"/>
	<polygon class="st34" points="568.2,343.9 610.3,355.2 611.1,352.6 569,341.2 	"/>
</g>
<g>
	<circle class="st26" cx="105" cy="507.7" r="27.5"/>
	<path class="st31" d="M119.3,501.1c0,7.9-14.4,28.6-14.4,28.6s-14.4-20.6-14.4-28.6c0-7.9,6.4-14.4,14.4-14.4
		C112.9,486.8,119.3,493.2,119.3,501.1z"/>
	<circle class="st28" cx="105" cy="502.8" r="6.8"/>
	<path class="st0" d="M105.5,480.2v55c14.9-0.3,26.9-12.5,26.9-27.5C132.5,492.7,120.5,480.5,105.5,480.2z"/>
</g>
<g>
	<circle class="st31" cx="91.3" cy="303.1" r="19.2"/>
	<circle class="st35" cx="91.3" cy="303.1" r="23.4"/>
	<text transform="matrix(1 0 0 1 85.3488 314.2841)" class="st28 st36 st37">$</text>
</g>
<g>
	<circle class="st27" cx="658.6" cy="447.4" r="39.4"/>
	<path class="st26" d="M685.4,463.1c0,1.9-1.6,3.5-3.5,3.5h-46.6c-1.9,0-3.5-1.6-3.5-3.5v-31.5c0-1.9,1.6-3.5,3.5-3.5h46.6
		c1.9,0,3.5,1.6,3.5,3.5V463.1z"/>
	<path class="st38" d="M657.2,450.4c-1,0-2-0.2-2.8-0.4l-19.5,16.6h3.3L657.2,450.4C657.2,450.4,657.2,450.4,657.2,450.4z"/>
	<path class="st38" d="M661.3,449.5c-0.7,0.4-1.5,0.6-2.4,0.8l19.2,16.4h3.3L661.3,449.5z"/>
	<path class="st39" d="M658.6,454.6l26.8-22.2v-0.8c0-1.4-0.8-2.6-1.9-3.1L658.6,449l-24.9-20.6c-1.2,0.6-1.9,1.8-1.9,3.1v0.8
		L658.6,454.6z"/>
	<path class="st0" d="M658.6,408c-0.2,0-0.4,0-0.6,0v78.8c0.2,0,0.4,0,0.6,0c21.8,0,39.4-17.7,39.4-39.4
		C698,425.6,680.4,408,658.6,408z"/>
</g>
<g>
	<circle class="st31" cx="388.9" cy="41.1" r="41.1"/>
	<path class="st0" d="M389.8,0v82.1c22.2-0.5,40.1-18.7,40.1-41S412,0.5,389.8,0z"/>
	<g>
		<g>
			<polyline class="st40" points="339.5,61.3 372.6,28.2 399.2,54.7 429.2,24.7 			"/>
			<g>
				<polygon class="st41" points="434.5,34.4 440,13.9 419.5,19.4 				"/>
			</g>
		</g>
	</g>
</g>
<g>
	<path class="st27" d="M60.8,89.2c1.5,7.8,5.9,15.1,13,19.9c8.9,6.1,19.9,6.9,29.3,3.1L91.3,83.4L60.8,89.2z"/>
	<path class="st31" d="M117,100.9c-3.6,5.2-8.5,9.1-14,11.3L91.3,83.4L117,100.9z"/>
	<path class="st33" d="M60.8,89.2c-1.5-7.8,0-16.2,4.9-23.3c9.7-14.2,29-17.8,43.2-8.2c14.2,9.7,17.8,29,8.2,43.2L91.3,83.4
		L60.8,89.2z"/>
</g>
<g>
	
		<ellipse transform="matrix(0.9315 -0.3638 0.3638 0.9315 -6.1474 91.0984)" class="st26" cx="238.8" cy="61.9" rx="53.2" ry="53.2"/>
	<g>
		<path class="st34" d="M281.3,83.4c0.9,2.2-0.2,4.7-2.5,5.6L227.7,109c-2.2,0.9-4.7-0.2-5.6-2.5l-25.9-66.2
			c-0.9-2.2,0.2-4.7,2.5-5.6l51.1-19.9c2.2-0.9,4.7,0.2,5.6,2.5L281.3,83.4z"/>
		<path class="st14" d="M273.4,79.4c0.7,1.8-0.2,3.9-2,4.6l-41.6,16.2c-1.8,0.7-3.9-0.2-4.6-2l-21.1-53.9c-0.7-1.8,0.2-3.9,2-4.6
			l41.6-16.2c1.8-0.7,3.9,0.2,4.6,2L273.4,79.4z"/>
		<ellipse transform="matrix(0.9315 -0.3638 0.3638 0.9315 4.0482 84.728)" class="st18" cx="227" cy="31.6" rx="18.8" ry="4.9"/>
		<path class="st18" d="M221.6,17.8c-3.8,1.5-5.7,5.8-4.2,9.6c1.5,3.8,5.8,5.7,9.6,4.2c3.8-1.5,5.7-5.8,4.2-9.6
			C229.7,18.2,225.4,16.3,221.6,17.8z M226,29.2c-2.5,1-5.2-0.3-6.2-2.7c-1-2.5,0.3-5.2,2.7-6.2c2.5-1,5.2,0.3,6.2,2.7
			C229.7,25.5,228.5,28.2,226,29.2z"/>
		
			<ellipse transform="matrix(0.9315 -0.3638 0.3638 0.9315 -3.4618 82.5177)" class="st27" cx="217.3" cy="50.4" rx="3.4" ry="3.4"/>
		<ellipse transform="matrix(0.9315 -0.3638 0.3638 0.9315 -9.2564 86.1219)" class="st27" cx="224" cy="67.6" rx="3.4" ry="3.4"/>
		
			<ellipse transform="matrix(0.9315 -0.3638 0.3638 0.9315 -15.3889 89.9549)" class="st27" cx="231.1" cy="85.8" rx="3.4" ry="3.4"/>
		
			<rect x="223" y="40.9" transform="matrix(0.9315 -0.3638 0.3638 0.9315 0.8619 89.3141)" class="st33" width="29.1" height="2.9"/>
		
			<rect x="229.7" y="58.3" transform="matrix(0.9315 -0.3638 0.3638 0.9315 -4.9816 92.9626)" class="st33" width="29.1" height="2.9"/>
		
			<rect x="236.9" y="76.5" transform="matrix(0.9315 -0.3638 0.3638 0.9315 -11.114 96.7943)" class="st33" width="29.1" height="2.9"/>
	</g>
	<path class="st0" d="M219.4,12.3c-0.1,0-0.1,0-0.2,0.1l38.7,99.2c0.1,0,0.1,0,0.2-0.1c27.4-10.7,40.9-41.6,30.2-69
		C277.7,15.1,246.8,1.6,219.4,12.3z"/>
</g>
</svg>
